<svg width="1282" height="277" viewBox="0 0 1282 277" fill="none" xmlns="http://www.w3.org/2000/svg">
    <g opacity="0.5" filter="url(#filter0_d_369_393)">
        <rect x="30.4766" y="91.4285" width="30.4762" height="30.4762" fill="#1D1A59"/>
        <rect x="304.762" y="91.4285" width="30.4762" height="30.4762" fill="#1D1A59"/>
        <rect x="822.857" y="91.4285" width="30.4762" height="30.4762" fill="#1D1A59"/>
        <rect x="1066.67" y="91.4285" width="30.4762" height="30.4762" fill="#1D1A59"/>
        <rect x="1249.52" y="91.4285" width="30.4762" height="30.4762" fill="#1D1A59"/>
        <rect x="548.571" y="91.4285" width="30.4762" height="30.4762" fill="#1D1A59"/>
        <rect x="30.4766" y="121.905" width="30.4762" height="30.4762" fill="#1D1A59"/>
        <rect x="304.762" y="121.905" width="30.4762" height="30.4762" fill="#1D1A59"/>
        <rect x="822.857" y="121.905" width="30.4762" height="30.4762" fill="#1D1A59"/>
        <rect x="1066.67" y="121.905" width="30.4762" height="30.4762" fill="#1D1A59"/>
        <rect x="1249.52" y="121.905" width="30.4762" height="30.4762" fill="#1D1A59"/>
        <rect x="548.571" y="121.905" width="30.4762" height="30.4762" fill="#1D1A59"/>
        <rect x="365.714" y="121.905" width="30.4762" height="30.4762" fill="#1D1A59"/>
        <rect x="883.81" y="121.905" width="30.4762" height="30.4762" fill="#1D1A59"/>
        <rect x="731.429" y="152.381" width="30.4762" height="30.4762" fill="#1D1A59"/>
        <rect x="396.19" y="121.905" width="30.4762" height="30.4762" fill="#1D1A59"/>
        <rect x="914.286" y="121.905" width="30.4762" height="30.4762" fill="#1D1A59"/>
        <rect x="700.952" y="243.81" width="30.4762" height="30.4762" fill="#1D1A59"/>
        <rect x="335.238" y="91.4285" width="30.4762" height="30.4762" fill="#1D1A59"/>
        <rect x="853.333" y="91.4285" width="30.4762" height="30.4762" fill="#1D1A59"/>
        <rect x="731.429" y="213.333" width="30.4762" height="30.4762" fill="#1D1A59"/>
        <rect x="335.238" y="152.381" width="30.4762" height="30.4762" fill="#1D1A59"/>
        <rect x="853.333" y="152.381" width="30.4762" height="30.4762" fill="#1D1A59"/>
        <rect x="700.952" y="152.381" width="30.4762" height="30.4762" fill="#1D1A59"/>
        <rect x="670.477" y="121.905" width="30.4762" height="30.4762" fill="#1D1A59"/>
        <rect x="700.952" y="121.905" width="30.4762" height="30.4762" fill="#1D1A59"/>
        <rect y="91.4285" width="30.4762" height="30.4762" fill="#1D1A59"/>
        <rect x="274.286" y="91.4285" width="30.4762" height="30.4762" fill="#1D1A59"/>
        <rect x="792.381" y="91.4285" width="30.4762" height="30.4762" fill="#1D1A59"/>
        <rect x="1036.19" y="91.4285" width="30.4762" height="30.4762" fill="#1D1A59"/>
        <rect x="1219.05" y="91.4285" width="30.4762" height="30.4762" fill="#1D1A59"/>
        <rect x="518.096" y="91.4285" width="30.4762" height="30.4762" fill="#1D1A59"/>
        <rect y="121.905" width="30.4762" height="30.4762" fill="#1D1A59"/>
        <rect x="274.286" y="121.905" width="30.4762" height="30.4762" fill="#1D1A59"/>
        <rect x="792.381" y="121.905" width="30.4762" height="30.4762" fill="#1D1A59"/>
        <rect x="1036.19" y="121.905" width="30.4762" height="30.4762" fill="#1D1A59"/>
        <rect x="1219.05" y="121.905" width="30.4762" height="30.4762" fill="#1D1A59"/>
        <rect x="518.096" y="121.905" width="30.4762" height="30.4762" fill="#1D1A59"/>
        <rect x="335.238" y="121.905" width="30.4762" height="30.4762" fill="#1D1A59"/>
        <rect x="853.333" y="121.905" width="30.4762" height="30.4762" fill="#1D1A59"/>
        <rect x="731.429" y="182.857" width="30.4762" height="30.4762" fill="#1D1A59"/>
        <rect y="60.9524" width="30.4762" height="30.4762" fill="#1D1A59"/>
        <rect x="274.286" y="60.9524" width="30.4762" height="30.4762" fill="#1D1A59"/>
        <rect x="792.381" y="60.9524" width="30.4762" height="30.4762" fill="#1D1A59"/>
        <rect x="1036.19" y="60.9524" width="30.4762" height="30.4762" fill="#1D1A59"/>
        <rect x="1219.05" y="60.9524" width="30.4762" height="30.4762" fill="#1D1A59"/>
        <rect x="518.096" y="60.9524" width="30.4762" height="30.4762" fill="#1D1A59"/>
        <rect y="30.4761" width="30.4762" height="30.4762" fill="#1D1A59"/>
        <rect x="335.238" y="30.4761" width="30.4762" height="30.4762" fill="#1D1A59"/>
        <rect x="853.333" y="30.4761" width="30.4762" height="30.4762" fill="#1D1A59"/>
        <rect x="579.048" y="30.4761" width="30.4762" height="30.4762" fill="#1D1A59"/>
        <rect x="579.048" y="60.9524" width="30.4762" height="30.4762" fill="#1D1A59"/>
        <rect x="335.238" y="243.81" width="30.4762" height="30.4762" fill="#1D1A59"/>
        <rect x="853.333" y="243.81" width="30.4762" height="30.4762" fill="#1D1A59"/>
        <rect x="579.048" y="243.81" width="30.4762" height="30.4762" fill="#1D1A59"/>
        <rect x="274.286" y="30.4761" width="30.4762" height="30.4762" fill="#1D1A59"/>
        <rect x="792.381" y="30.4761" width="30.4762" height="30.4762" fill="#1D1A59"/>
        <rect x="1036.19" y="30.4761" width="30.4762" height="30.4762" fill="#1D1A59"/>
        <rect x="1219.05" y="30.4761" width="30.4762" height="30.4762" fill="#1D1A59"/>
        <rect x="30.4766" y="60.9524" width="30.4762" height="30.4762" fill="#1D1A59"/>
        <rect x="304.762" y="60.9524" width="30.4762" height="30.4762" fill="#1D1A59"/>
        <rect x="822.857" y="60.9524" width="30.4762" height="30.4762" fill="#1D1A59"/>
        <rect x="1066.67" y="60.9524" width="30.4762" height="30.4762" fill="#1D1A59"/>
        <rect x="1249.52" y="60.9524" width="30.4762" height="30.4762" fill="#1D1A59"/>
        <rect x="1097.14" y="91.4285" width="30.4762" height="30.4762" fill="#1D1A59"/>
        <rect x="1127.62" y="121.905" width="30.4762" height="30.4762" fill="#1D1A59"/>
        <rect x="1158.1" y="152.381" width="30.4762" height="30.4762" fill="#1D1A59"/>
        <rect x="1188.57" y="182.857" width="30.4762" height="30.4762" fill="#1D1A59"/>
        <rect x="548.571" y="60.9524" width="30.4762" height="30.4762" fill="#1D1A59"/>
        <rect x="30.4766" y="30.4761" width="30.4762" height="30.4762" fill="#1D1A59"/>
        <rect x="365.714" y="30.4761" width="30.4762" height="30.4762" fill="#1D1A59"/>
        <rect x="883.81" y="30.4761" width="30.4762" height="30.4762" fill="#1D1A59"/>
        <rect x="609.523" y="30.4761" width="30.4762" height="30.4762" fill="#1D1A59"/>
        <rect x="365.714" y="243.81" width="30.4762" height="30.4762" fill="#1D1A59"/>
        <rect x="883.81" y="243.81" width="30.4762" height="30.4762" fill="#1D1A59"/>
        <rect x="609.523" y="243.81" width="30.4762" height="30.4762" fill="#1D1A59"/>
        <rect x="304.762" y="30.4761" width="30.4762" height="30.4762" fill="#1D1A59"/>
        <rect x="822.857" y="30.4761" width="30.4762" height="30.4762" fill="#1D1A59"/>
        <rect x="1066.67" y="30.4761" width="30.4762" height="30.4762" fill="#1D1A59"/>
        <rect x="1249.52" y="30.4761" width="30.4762" height="30.4762" fill="#1D1A59"/>
        <rect x="1097.14" y="60.9524" width="30.4762" height="30.4762" fill="#1D1A59"/>
        <rect x="1127.62" y="91.4285" width="30.4762" height="30.4762" fill="#1D1A59"/>
        <rect x="1158.1" y="121.905" width="30.4762" height="30.4762" fill="#1D1A59"/>
        <rect x="1188.57" y="152.381" width="30.4762" height="30.4762" fill="#1D1A59"/>
        <rect x="548.571" y="30.4761" width="30.4762" height="30.4762" fill="#1D1A59"/>
        <rect x="121.904" y="30.4761" width="30.4762" height="30.4762" fill="#1D1A59"/>
        <rect x="426.667" y="30.4761" width="30.4762" height="30.4762" fill="#1D1A59"/>
        <rect x="944.762" y="30.4761" width="30.4762" height="30.4762" fill="#1D1A59"/>
        <rect x="670.477" y="30.4761" width="30.4762" height="30.4762" fill="#1D1A59"/>
        <rect x="426.667" y="243.81" width="30.4762" height="30.4762" fill="#1D1A59"/>
        <rect x="944.762" y="243.81" width="30.4762" height="30.4762" fill="#1D1A59"/>
        <rect x="670.477" y="243.81" width="30.4762" height="30.4762" fill="#1D1A59"/>
        <rect x="457.143" y="30.4761" width="30.4762" height="30.4762" fill="#1D1A59"/>
        <rect x="975.238" y="30.4761" width="30.4762" height="30.4762" fill="#1D1A59"/>
        <rect x="700.952" y="30.4761" width="30.4762" height="30.4762" fill="#1D1A59"/>
        <rect x="731.429" y="30.4761" width="30.4762" height="30.4762" fill="#1D1A59"/>
        <rect x="457.143" y="213.333" width="30.4762" height="30.4762" fill="#1D1A59"/>
        <rect x="975.238" y="213.333" width="30.4762" height="30.4762" fill="#1D1A59"/>
        <rect x="700.952" y="213.333" width="30.4762" height="30.4762" fill="#1D1A59"/>
        <rect x="60.9521" y="30.4761" width="30.4762" height="30.4762" fill="#1D1A59"/>
        <rect x="91.4287" y="30.4761" width="30.4762" height="30.4762" fill="#1D1A59"/>
        <rect x="396.19" y="30.4761" width="30.4762" height="30.4762" fill="#1D1A59"/>
        <rect x="914.285" y="30.4761" width="30.4762" height="30.4762" fill="#1D1A59"/>
        <rect x="640" y="30.4761" width="30.4762" height="30.4762" fill="#1D1A59"/>
        <rect x="396.19" y="243.81" width="30.4762" height="30.4762" fill="#1D1A59"/>
        <rect x="914.286" y="243.81" width="30.4762" height="30.4762" fill="#1D1A59"/>
        <rect x="640" y="243.81" width="30.4762" height="30.4762" fill="#1D1A59"/>
        <rect x="152.381" y="30.4761" width="30.4762" height="30.4762" fill="#1D1A59"/>
        <rect x="152.381" y="60.9524" width="30.4762" height="30.4762" fill="#1D1A59"/>
        <rect x="182.857" y="60.9524" width="30.4762" height="30.4762" fill="#1D1A59"/>
        <rect x="182.857" y="91.4285" width="30.4762" height="30.4762" fill="#1D1A59"/>
        <rect x="182.857" y="121.905" width="30.4762" height="30.4762" fill="#1D1A59"/>
        <rect x="213.333" y="91.4285" width="30.4762" height="30.4762" fill="#1D1A59"/>
        <rect x="213.333" y="121.905" width="30.4762" height="30.4762" fill="#1D1A59"/>
        <rect x="182.857" y="152.381" width="30.4762" height="30.4762" fill="#1D1A59"/>
        <rect x="152.381" y="182.857" width="30.4762" height="30.4762" fill="#1D1A59"/>
        <rect x="121.904" y="243.81" width="30.4762" height="30.4762" fill="#1D1A59"/>
        <rect x="60.9521" y="243.81" width="30.4762" height="30.4762" fill="#1D1A59"/>
        <rect x="91.4287" y="243.81" width="30.4762" height="30.4762" fill="#1D1A59"/>
        <rect x="30.4766" width="30.4762" height="30.4762" fill="#1D1A59"/>
        <rect x="365.714" width="30.4762" height="30.4762" fill="#1D1A59"/>
        <rect x="883.81" width="30.4762" height="30.4762" fill="#1D1A59"/>
        <rect x="609.523" width="30.4762" height="30.4762" fill="#1D1A59"/>
        <rect x="365.714" y="213.333" width="30.4762" height="30.4762" fill="#1D1A59"/>
        <rect x="883.81" y="213.333" width="30.4762" height="30.4762" fill="#1D1A59"/>
        <rect x="609.523" y="213.333" width="30.4762" height="30.4762" fill="#1D1A59"/>
        <rect x="304.762" width="30.4762" height="30.4762" fill="#1D1A59"/>
        <rect x="822.857" width="30.4762" height="30.4762" fill="#1D1A59"/>
        <rect x="1066.67" width="30.4762" height="30.4762" fill="#1D1A59"/>
        <rect x="1219.05" width="30.4762" height="30.4762" fill="#1D1A59"/>
        <rect x="1097.14" y="30.4761" width="30.4762" height="30.4762" fill="#1D1A59"/>
        <rect x="1127.62" y="60.9524" width="30.4762" height="30.4762" fill="#1D1A59"/>
        <rect x="1158.1" y="91.4285" width="30.4762" height="30.4762" fill="#1D1A59"/>
        <rect x="1188.57" y="121.905" width="30.4762" height="30.4762" fill="#1D1A59"/>
        <rect x="335.238" width="30.4762" height="30.4762" fill="#1D1A59"/>
        <rect x="853.333" width="30.4762" height="30.4762" fill="#1D1A59"/>
        <rect x="579.048" width="30.4762" height="30.4762" fill="#1D1A59"/>
        <rect x="335.238" y="213.333" width="30.4762" height="30.4762" fill="#1D1A59"/>
        <rect x="853.333" y="213.333" width="30.4762" height="30.4762" fill="#1D1A59"/>
        <rect x="579.048" y="213.333" width="30.4762" height="30.4762" fill="#1D1A59"/>
        <rect x="579.048" y="182.857" width="30.4762" height="30.4762" fill="#1D1A59"/>
        <rect x="121.904" width="30.4762" height="30.4762" fill="#1D1A59"/>
        <rect x="426.667" width="30.4762" height="30.4762" fill="#1D1A59"/>
        <rect x="944.762" width="30.4762" height="30.4762" fill="#1D1A59"/>
        <rect x="670.477" width="30.4762" height="30.4762" fill="#1D1A59"/>
        <rect x="700.952" width="30.4762" height="30.4762" fill="#1D1A59"/>
        <rect x="426.667" y="213.333" width="30.4762" height="30.4762" fill="#1D1A59"/>
        <rect x="944.762" y="213.333" width="30.4762" height="30.4762" fill="#1D1A59"/>
        <rect x="670.477" y="213.333" width="30.4762" height="30.4762" fill="#1D1A59"/>
        <rect x="60.9521" width="30.4762" height="30.4762" fill="#1D1A59"/>
        <rect x="91.4287" width="30.4762" height="30.4762" fill="#1D1A59"/>
        <rect x="396.19" width="30.4762" height="30.4762" fill="#1D1A59"/>
        <rect x="914.286" width="30.4762" height="30.4762" fill="#1D1A59"/>
        <rect x="640" width="30.4762" height="30.4762" fill="#1D1A59"/>
        <rect x="396.19" y="213.333" width="30.4762" height="30.4762" fill="#1D1A59"/>
        <rect x="914.286" y="213.333" width="30.4762" height="30.4762" fill="#1D1A59"/>
        <rect x="640" y="213.333" width="30.4762" height="30.4762" fill="#1D1A59"/>
        <rect x="182.857" y="30.4761" width="30.4762" height="30.4762" fill="#1D1A59"/>
        <rect x="213.333" y="60.9524" width="30.4762" height="30.4762" fill="#1D1A59"/>
        <rect x="213.333" y="152.381" width="30.4762" height="30.4762" fill="#1D1A59"/>
        <rect x="182.857" y="182.857" width="30.4762" height="30.4762" fill="#1D1A59"/>
        <rect x="213.333" y="182.857" width="30.4762" height="30.4762" fill="#1D1A59"/>
        <rect x="182.857" y="213.333" width="30.4762" height="30.4762" fill="#1D1A59"/>
        <rect x="152.381" y="213.333" width="30.4762" height="30.4762" fill="#1D1A59"/>
        <rect x="121.904" y="213.333" width="30.4762" height="30.4762" fill="#1D1A59"/>
        <rect x="60.9521" y="213.333" width="30.4762" height="30.4762" fill="#1D1A59"/>
        <rect x="91.4287" y="213.333" width="30.4762" height="30.4762" fill="#1D1A59"/>
        <rect width="30.4762" height="30.4762" transform="matrix(1 0 0 -1 30.4766 182.857)" fill="#1D1A59"/>
        <rect width="30.4762" height="30.4762" transform="matrix(1 0 0 -1 304.762 182.857)" fill="#1D1A59"/>
        <rect width="30.4762" height="30.4762" transform="matrix(1 0 0 -1 822.857 182.857)" fill="#1D1A59"/>
        <rect width="30.4762" height="30.4762" transform="matrix(1 0 0 -1 1066.67 182.857)" fill="#1D1A59"/>
        <rect width="30.4762" height="30.4762" transform="matrix(1 0 0 -1 1249.52 182.857)" fill="#1D1A59"/>
        <rect width="30.4762" height="30.4762" transform="matrix(1 0 0 -1 548.571 182.857)" fill="#1D1A59"/>
        <rect width="30.4762" height="30.4762" transform="matrix(1 0 0 -1 0 182.857)" fill="#1D1A59"/>
        <rect width="30.4762" height="30.4762" transform="matrix(1 0 0 -1 274.286 182.857)" fill="#1D1A59"/>
        <rect width="30.4762" height="30.4762" transform="matrix(1 0 0 -1 792.381 182.857)" fill="#1D1A59"/>
        <rect width="30.4762" height="30.4762" transform="matrix(1 0 0 -1 1036.19 182.857)" fill="#1D1A59"/>
        <rect width="30.4762" height="30.4762" transform="matrix(1 0 0 -1 1219.05 182.857)" fill="#1D1A59"/>
        <rect width="30.4762" height="30.4762" transform="matrix(1 0 0 -1 518.096 182.857)" fill="#1D1A59"/>
        <rect width="30.4762" height="30.4762" transform="matrix(1 0 0 -1 0 213.333)" fill="#1D1A59"/>
        <rect width="30.4762" height="30.4762" transform="matrix(1 0 0 -1 274.286 213.333)" fill="#1D1A59"/>
        <rect width="30.4762" height="30.4762" transform="matrix(1 0 0 -1 792.381 213.333)" fill="#1D1A59"/>
        <rect width="30.4762" height="30.4762" transform="matrix(1 0 0 -1 1036.19 213.333)" fill="#1D1A59"/>
        <rect width="30.4762" height="30.4762" transform="matrix(1 0 0 -1 1219.05 213.333)" fill="#1D1A59"/>
        <rect width="30.4762" height="30.4762" transform="matrix(1 0 0 -1 518.096 213.333)" fill="#1D1A59"/>
        <rect width="30.4762" height="30.4762" transform="matrix(1 0 0 -1 0 243.81)" fill="#1D1A59"/>
        <rect width="30.4762" height="30.4762" transform="matrix(1 0 0 -1 274.286 243.81)" fill="#1D1A59"/>
        <rect width="30.4762" height="30.4762" transform="matrix(1 0 0 -1 792.381 243.81)" fill="#1D1A59"/>
        <rect width="30.4762" height="30.4762" transform="matrix(1 0 0 -1 1036.19 243.81)" fill="#1D1A59"/>
        <rect width="30.4762" height="30.4762" transform="matrix(1 0 0 -1 1219.05 243.81)" fill="#1D1A59"/>
        <rect width="30.4762" height="30.4762" transform="matrix(1 0 0 -1 30.4766 213.333)" fill="#1D1A59"/>
        <rect width="30.4762" height="30.4762" transform="matrix(1 0 0 -1 304.762 213.333)" fill="#1D1A59"/>
        <rect width="30.4762" height="30.4762" transform="matrix(1 0 0 -1 822.857 213.333)" fill="#1D1A59"/>
        <rect width="30.4762" height="30.4762" transform="matrix(1 0 0 -1 1066.67 213.333)" fill="#1D1A59"/>
        <rect width="30.4762" height="30.4762" transform="matrix(1 0 0 -1 1249.52 213.333)" fill="#1D1A59"/>
        <rect width="30.4762" height="30.4762" transform="matrix(1 0 0 -1 548.571 213.333)" fill="#1D1A59"/>
        <rect width="30.4762" height="30.4762" transform="matrix(1 0 0 -1 30.4766 243.81)" fill="#1D1A59"/>
        <rect width="30.4762" height="30.4762" transform="matrix(1 0 0 -1 304.762 243.81)" fill="#1D1A59"/>
        <rect width="30.4762" height="30.4762" transform="matrix(1 0 0 -1 822.857 243.81)" fill="#1D1A59"/>
        <rect width="30.4762" height="30.4762" transform="matrix(1 0 0 -1 1066.67 243.81)" fill="#1D1A59"/>
        <rect width="30.4762" height="30.4762" transform="matrix(1 0 0 -1 1249.52 243.81)" fill="#1D1A59"/>
        <rect width="30.4762" height="30.4762" transform="matrix(1 0 0 -1 548.571 243.81)" fill="#1D1A59"/>
        <rect width="30.4762" height="30.4762" transform="matrix(1 0 0 -1 30.4766 274.286)" fill="#1D1A59"/>
        <rect width="30.4762" height="30.4762" transform="matrix(1 0 0 -1 304.762 274.286)" fill="#1D1A59"/>
        <rect width="30.4762" height="30.4762" transform="matrix(1 0 0 -1 822.857 274.286)" fill="#1D1A59"/>
        <rect width="30.4762" height="30.4762" transform="matrix(1 0 0 -1 1036.19 274.286)" fill="#1D1A59"/>
        <rect width="30.4762" height="30.4762" transform="matrix(1 0 0 -1 1249.52 274.286)" fill="#1D1A59"/>
    </g>
    <defs>
        <filter id="filter0_d_369_393" x="0" y="0" width="1282" height="276.286" filterUnits="userSpaceOnUse" color-interpolation-filters="sRGB">
            <feFlood flood-opacity="0" result="BackgroundImageFix"/>
            <feColorMatrix in="SourceAlpha" type="matrix" values="0 0 0 0 0 0 0 0 0 0 0 0 0 0 0 0 0 0 127 0" result="hardAlpha"/>
            <feOffset dx="2" dy="2"/>
            <feComposite in2="hardAlpha" operator="out"/>
            <feColorMatrix type="matrix" values="0 0 0 0 0.160784 0 0 0 0 0.196078 0 0 0 0 0.407843 0 0 0 1 0"/>
            <feBlend mode="normal" in2="BackgroundImageFix" result="effect1_dropShadow_369_393"/>
            <feBlend mode="normal" in="SourceGraphic" in2="effect1_dropShadow_369_393" result="shape"/>
        </filter>
    </defs>
</svg>
